<?xml version="1.0" encoding="UTF-8"?> <svg xmlns="http://www.w3.org/2000/svg" id="svgexport-1_1_" data-name="svgexport-1 (1)" width="200" height="31.936" viewBox="0 0 200 31.936"><g id="Group_376" data-name="Group 376" transform="translate(134.45 5.136)"><path id="Path_188" data-name="Path 188" d="M1037.432,40.4a10.832,10.832,0,1,0,0,21.663h.413V51.645h10.419v-.413A10.849,10.849,0,0,0,1037.432,40.4Zm-.413,10.432V61.237a10.01,10.01,0,1,1,10.419-10.405Z" transform="translate(-1026.6 -40.4)" fill="#2a2a2a"></path></g><g id="Group_377" data-name="Group 377" transform="translate(86.176 5.136)"><path id="Path_189" data-name="Path 189" d="M668.832,40.4a10.832,10.832,0,1,0,0,21.663h.413V51.645h10.419v-.413A10.849,10.849,0,0,0,668.832,40.4Zm-.413,10.432V61.237a10.01,10.01,0,1,1,10.405-10.405Z" transform="translate(-658 -40.4)" fill="#2a2a2a"></path></g><g id="Group_379" data-name="Group 379"><path id="Path_190" data-name="Path 190" d="M1231.078,54.214h.866a10.588,10.588,0,1,1,0-6.458h-.866a10.046,10.046,0,0,0-19.465,3.216,10.052,10.052,0,0,0,19.465,3.242Z" transform="translate(-1052.568 -35.017)" fill="#2a2a2a"></path><g id="Group_378" data-name="Group 378" transform="translate(0 4.89)"><path id="Path_191" data-name="Path 191" d="M124.432,40.4a10.832,10.832,0,1,0,10.832,10.832A10.849,10.849,0,0,0,124.432,40.4Zm0,20.837a10.006,10.006,0,1,1,10.006-10.006A10.019,10.019,0,0,1,124.432,61.237Z" transform="translate(-98.465 -40.4)" fill="#2a2a2a"></path><path id="Path_192" data-name="Path 192" d="M297.9,42.8V53.872a10.259,10.259,0,1,0,20.518,0V42.8Zm19.7,11.085a9.446,9.446,0,1,1-18.892,0V43.613H317.6Z" transform="translate(-258.21 -42.48)" fill="#2a2a2a"></path><path id="Path_193" data-name="Path 193" d="M.813,62.938H16.121v.813H0V42.7H.813Z" transform="translate(0 -42.394)" fill="#2a2a2a"></path><path id="Path_194" data-name="Path 194" d="M484.532,40.4A10.849,10.849,0,0,0,473.7,51.232V67.446h.813V56.814l-.373-2.5A10.829,10.829,0,1,0,484.532,40.4Zm0,20.837a10.006,10.006,0,1,1,10.006-10.006A10.03,10.03,0,0,1,484.532,61.237Z" transform="translate(-410.588 -40.4)" fill="#2a2a2a"></path></g><path id="Path_195" data-name="Path 195" d="M1404.182,16.054l-4.77,4.756v5.915h-.813V0h.813V19.652L1413.4,5.689h1.159l-9.806,9.779,10.592,11.245h-1.119Z" transform="translate(-1215.347)" fill="#2a2a2a"></path><path id="Path_196" data-name="Path 196" d="M863.151,0V10.632h-.013l.373,2.5a10.8,10.8,0,1,0,.453,3.064V0ZM853.132,26.22a10.006,10.006,0,1,1,10.019-10.006A10.019,10.019,0,0,1,853.132,26.22Z" transform="translate(-731.987)" fill="#2a2a2a"></path></g></svg> 